<svg id="visual" viewBox="0 0 1920 250" width="1920" height="250" xmlns="http://www.w3.org/2000/svg" xmlns:xlink="http://www.w3.org/1999/xlink" version="1.1"><path d="M0 119L45.7 118.8C91.3 118.7 182.7 118.3 274.2 129.2C365.7 140 457.3 162 548.8 167.5C640.3 173 731.7 162 823 137.7C914.3 113.3 1005.7 75.7 1097 63.8C1188.3 52 1279.7 66 1371.2 93.2C1462.7 120.3 1554.3 160.7 1645.8 171.2C1737.3 181.7 1828.7 162.3 1874.3 152.7L1920 143L1920 251L1874.3 251C1828.7 251 1737.3 251 1645.8 251C1554.3 251 1462.7 251 1371.2 251C1279.7 251 1188.3 251 1097 251C1005.7 251 914.3 251 823 251C731.7 251 640.3 251 548.8 251C457.3 251 365.7 251 274.2 251C182.7 251 91.3 251 45.7 251L0 251Z" fill="#ffebcd" stroke-linecap="round" stroke-linejoin="miter"></path></svg>