<svg id="visual" viewBox="0 0 900 600" width="900" height="600" xmlns="http://www.w3.org/2000/svg" xmlns:xlink="http://www.w3.org/1999/xlink" version="1.1"><path d="M0 490L21.5 487.5C43 485 86 480 128.8 474.7C171.7 469.3 214.3 463.7 257.2 466C300 468.3 343 478.7 385.8 484.2C428.7 489.7 471.3 490.3 514.2 490.7C557 491 600 491 642.8 484.3C685.7 477.7 728.3 464.3 771.2 459.2C814 454 857 457 878.5 458.5L900 460L900 601L878.5 601C857 601 814 601 771.2 601C728.3 601 685.7 601 642.8 601C600 601 557 601 514.2 601C471.3 601 428.7 601 385.8 601C343 601 300 601 257.2 601C214.3 601 171.7 601 128.8 601C86 601 43 601 21.5 601L0 601Z" fill="#09bf3d"></path><path d="M0 502L21.5 500.7C43 499.3 86 496.7 128.8 493.7C171.7 490.7 214.3 487.3 257.2 484.5C300 481.7 343 479.3 385.8 485.8C428.7 492.3 471.3 507.7 514.2 508.7C557 509.7 600 496.3 642.8 495.8C685.7 495.3 728.3 507.7 771.2 508.2C814 508.7 857 497.3 878.5 491.7L900 486L900 601L878.5 601C857 601 814 601 771.2 601C728.3 601 685.7 601 642.8 601C600 601 557 601 514.2 601C471.3 601 428.7 601 385.8 601C343 601 300 601 257.2 601C214.3 601 171.7 601 128.8 601C86 601 43 601 21.5 601L0 601Z" fill="#17b442"></path><path d="M0 528L21.5 524.2C43 520.3 86 512.7 128.8 509.8C171.7 507 214.3 509 257.2 514.3C300 519.7 343 528.3 385.8 532C428.7 535.7 471.3 534.3 514.2 530.8C557 527.3 600 521.7 642.8 519.5C685.7 517.3 728.3 518.7 771.2 517.8C814 517 857 514 878.5 512.5L900 511L900 601L878.5 601C857 601 814 601 771.2 601C728.3 601 685.7 601 642.8 601C600 601 557 601 514.2 601C471.3 601 428.7 601 385.8 601C343 601 300 601 257.2 601C214.3 601 171.7 601 128.8 601C86 601 43 601 21.5 601L0 601Z" fill="#20a946"></path><path d="M0 531L21.5 530.8C43 530.7 86 530.3 128.8 534C171.7 537.7 214.3 545.3 257.2 548.7C300 552 343 551 385.8 548.3C428.7 545.7 471.3 541.3 514.2 538.5C557 535.7 600 534.3 642.8 534.2C685.7 534 728.3 535 771.2 540C814 545 857 554 878.5 558.5L900 563L900 601L878.5 601C857 601 814 601 771.2 601C728.3 601 685.7 601 642.8 601C600 601 557 601 514.2 601C471.3 601 428.7 601 385.8 601C343 601 300 601 257.2 601C214.3 601 171.7 601 128.8 601C86 601 43 601 21.5 601L0 601Z" fill="#289e49"></path><path d="M0 572L21.5 570.5C43 569 86 566 128.8 568C171.7 570 214.3 577 257.2 580.2C300 583.3 343 582.7 385.8 581.2C428.7 579.7 471.3 577.3 514.2 573.5C557 569.7 600 564.3 642.8 563.3C685.7 562.3 728.3 565.7 771.2 564.8C814 564 857 559 878.5 556.5L900 554L900 601L878.5 601C857 601 814 601 771.2 601C728.3 601 685.7 601 642.8 601C600 601 557 601 514.2 601C471.3 601 428.7 601 385.8 601C343 601 300 601 257.2 601C214.3 601 171.7 601 128.8 601C86 601 43 601 21.5 601L0 601Z" fill="#2e944b"></path></svg>